PathFileType	4	(X/Y/Z)	E:/Microgravity/Neeraj_13_07_24_t02 _without_weight_pp.trc													
DataRate	CameraRate	NumFrames	NumMarkers	Units	OrigDataRate	OrigDataStartFrame	OrigNumFrames									
120	120	82	5	m	120	883	7058									
Frame#	Time	RHAND			r_radius_styloid			RWRB			r_humerus_epicondyle			r_acromion		
		X1	Y1	Z1	X2	Y2	Z2	X3	Y3	Z3	X4	Y4	Z4	X5	Y5	Z5
																
883	7.35	0.20896	-0.56899	0.26298	0.13909	-0.49457	0.30568	0.11224	-0.53682	0.22011	0.01138	-0.29723	0.26522	0.0029	0.08205	0.18324
884	7.358	0.2093	-0.56869	0.26296	0.13933	-0.49437	0.30568	0.11252	-0.53663	0.22012	0.01136	-0.29721	0.26524	0.00286	0.08205	0.18327
885	7.367	0.20964	-0.5684	0.26295	0.13957	-0.49416	0.30569	0.11278	-0.53645	0.22012	0.01135	-0.29718	0.26526	0.00282	0.08205	0.18329
886	7.375	0.20996	-0.56811	0.26293	0.1398	-0.49396	0.30569	0.11304	-0.53628	0.22012	0.01134	-0.29716	0.26528	0.00278	0.08204	0.18332
887	7.383	0.21029	-0.56783	0.26292	0.14004	-0.49377	0.30569	0.11329	-0.53611	0.22012	0.01133	-0.29714	0.2653	0.00274	0.08204	0.18334
888	7.392	0.2106	-0.56755	0.26292	0.14027	-0.49357	0.30568	0.11353	-0.53594	0.22012	0.01132	-0.29712	0.26532	0.0027	0.08204	0.18337
889	7.4	0.21092	-0.56727	0.26292	0.1405	-0.49338	0.30568	0.11378	-0.53578	0.22012	0.01132	-0.2971	0.26534	0.00266	0.08204	0.18339
890	7.408	0.21122	-0.567	0.26292	0.14073	-0.49319	0.30568	0.11402	-0.53562	0.22012	0.01131	-0.29708	0.26535	0.00262	0.08204	0.18341
891	7.417	0.21152	-0.56673	0.26292	0.14097	-0.49299	0.30569	0.11427	-0.53545	0.22013	0.0113	-0.29706	0.26537	0.00258	0.08205	0.18343
892	7.425	0.21183	-0.56646	0.26293	0.1412	-0.4928	0.30569	0.11453	-0.53529	0.22013	0.0113	-0.29703	0.26538	0.00254	0.08205	0.18345
893	7.433	0.21213	-0.56619	0.26294	0.14142	-0.4926	0.3057	0.1148	-0.53513	0.22015	0.01129	-0.29701	0.2654	0.0025	0.08205	0.18347
894	7.442	0.21243	-0.56592	0.26295	0.14165	-0.49241	0.30571	0.11509	-0.53498	0.22016	0.01128	-0.29698	0.26542	0.00247	0.08205	0.18349
895	7.45	0.21274	-0.56566	0.26296	0.14187	-0.49222	0.30572	0.1154	-0.53483	0.22019	0.01128	-0.29695	0.26543	0.00244	0.08206	0.1835
896	7.458	0.21304	-0.56539	0.26297	0.14208	-0.49202	0.30573	0.11572	-0.53468	0.22022	0.01127	-0.29692	0.26545	0.00241	0.08207	0.18352
897	7.467	0.21334	-0.56512	0.26298	0.14229	-0.49182	0.30574	0.11603	-0.53454	0.22026	0.01125	-0.29689	0.26547	0.00238	0.08208	0.18353
898	7.475	0.21364	-0.56485	0.26299	0.1425	-0.49162	0.30575	0.11634	-0.5344	0.22029	0.01124	-0.29686	0.26549	0.00236	0.08208	0.18355
899	7.483	0.21393	-0.56457	0.26299	0.14271	-0.49142	0.30576	0.11664	-0.53425	0.22033	0.01122	-0.29683	0.26551	0.00233	0.08209	0.18356
900	7.492	0.21422	-0.5643	0.263	0.14292	-0.49122	0.30578	0.11692	-0.53411	0.22035	0.01119	-0.29679	0.26553	0.00231	0.0821	0.18357
901	7.5	0.2145	-0.56402	0.263	0.14313	-0.49101	0.30579	0.11718	-0.53396	0.22037	0.01117	-0.29675	0.26556	0.00229	0.08211	0.18358
902	7.508	0.21478	-0.56373	0.263	0.14334	-0.4908	0.3058	0.11742	-0.53381	0.22039	0.01114	-0.29672	0.26558	0.00227	0.08212	0.18359
903	7.517	0.21506	-0.56343	0.26301	0.14355	-0.49058	0.30581	0.11766	-0.53365	0.22041	0.01111	-0.29668	0.26561	0.00226	0.08213	0.1836
904	7.525	0.21535	-0.56313	0.26301	0.14375	-0.49036	0.30583	0.1179	-0.53348	0.22042	0.01107	-0.29664	0.26563	0.00224	0.08214	0.18361
905	7.533	0.21563	-0.56282	0.26302	0.14396	-0.49014	0.30584	0.11813	-0.53332	0.22044	0.01104	-0.2966	0.26566	0.00222	0.08216	0.18362
906	7.542	0.21591	-0.5625	0.26303	0.14417	-0.48992	0.30586	0.11837	-0.53315	0.22045	0.011	-0.29655	0.26569	0.00221	0.08217	0.18364
907	7.55	0.2162	-0.56218	0.26304	0.14438	-0.48969	0.30588	0.11861	-0.53298	0.22045	0.01095	-0.29651	0.26572	0.00219	0.08218	0.18365
908	7.558	0.21648	-0.56185	0.26306	0.14459	-0.48945	0.3059	0.11886	-0.53281	0.22046	0.01091	-0.29646	0.26574	0.00218	0.08219	0.18366
909	7.567	0.21678	-0.56152	0.26308	0.1448	-0.48921	0.30592	0.11911	-0.53264	0.22046	0.01087	-0.29642	0.26577	0.00216	0.08221	0.18368
910	7.575	0.21708	-0.56118	0.26311	0.14501	-0.48897	0.30595	0.11937	-0.53248	0.22047	0.01082	-0.29637	0.2658	0.00214	0.08222	0.18369
911	7.583	0.21739	-0.56085	0.26315	0.14523	-0.48873	0.30598	0.11964	-0.53233	0.22047	0.01078	-0.29632	0.26583	0.00212	0.08224	0.18371
912	7.592	0.21769	-0.56051	0.2632	0.14543	-0.48849	0.30601	0.11994	-0.5322	0.22048	0.01075	-0.29627	0.26585	0.00209	0.08226	0.18372
913	7.6	0.218	-0.56018	0.26325	0.14564	-0.48825	0.30605	0.12026	-0.53209	0.22049	0.01071	-0.29622	0.26588	0.00205	0.08228	0.18373
914	7.608	0.2183	-0.55986	0.2633	0.14585	-0.48801	0.30609	0.12061	-0.53202	0.2205	0.01068	-0.29616	0.26591	0.00201	0.0823	0.18372
915	7.617	0.21859	-0.55954	0.26335	0.14605	-0.48777	0.30613	0.12095	-0.53193	0.22054	0.01065	-0.29611	0.26594	0.00197	0.08233	0.18372
916	7.625	0.21887	-0.55923	0.2634	0.14626	-0.48753	0.30617	0.12123	-0.53176	0.22061	0.01063	-0.29606	0.26597	0.00192	0.08235	0.18371
917	7.633	0.21915	-0.55893	0.26345	0.14646	-0.4873	0.30622	0.12146	-0.5315	0.22072	0.01061	-0.296	0.266	0.00188	0.08237	0.18371
918	7.642	0.21944	-0.55862	0.26351	0.14667	-0.48707	0.30627	0.12164	-0.53118	0.22086	0.01059	-0.29595	0.26603	0.00185	0.0824	0.18371
919	7.65	0.21973	-0.55831	0.26358	0.14688	-0.48683	0.30632	0.12181	-0.53083	0.22099	0.01058	-0.2959	0.26606	0.00181	0.08241	0.18371
920	7.658	0.22001	-0.55801	0.26364	0.1471	-0.48659	0.30638	0.12201	-0.53054	0.22111	0.01056	-0.29585	0.2661	0.00178	0.08243	0.18371
921	7.667	0.2203	-0.5577	0.26372	0.14732	-0.48635	0.30644	0.12225	-0.53027	0.22122	0.01054	-0.2958	0.26614	0.00175	0.08245	0.18371
922	7.675	0.2206	-0.55738	0.26379	0.14754	-0.48611	0.3065	0.12252	-0.53003	0.22133	0.01053	-0.29575	0.26618	0.00172	0.08247	0.18371
923	7.683	0.22089	-0.55706	0.26386	0.14776	-0.48587	0.30657	0.12282	-0.52981	0.22144	0.01051	-0.2957	0.26622	0.00169	0.08249	0.1837
924	7.692	0.2212	-0.55673	0.26394	0.14797	-0.48562	0.30663	0.12316	-0.5296	0.22155	0.01049	-0.29565	0.26626	0.00166	0.08251	0.1837
925	7.7	0.22151	-0.55639	0.26402	0.14819	-0.48538	0.3067	0.12347	-0.5294	0.22165	0.01047	-0.2956	0.26631	0.00163	0.08253	0.1837
926	7.708	0.22182	-0.55605	0.2641	0.14841	-0.48513	0.30676	0.12376	-0.5292	0.22174	0.01045	-0.29554	0.26635	0.0016	0.08255	0.1837
927	7.717	0.22214	-0.5557	0.26418	0.14862	-0.48488	0.30683	0.12403	-0.529	0.22182	0.01043	-0.29549	0.2664	0.00157	0.08257	0.1837
928	7.725	0.22246	-0.55535	0.26426	0.14883	-0.48464	0.3069	0.12429	-0.52881	0.22189	0.01041	-0.29543	0.26645	0.00154	0.0826	0.1837
929	7.733	0.22277	-0.555	0.26433	0.14904	-0.48439	0.30696	0.12454	-0.52863	0.22196	0.01038	-0.29537	0.2665	0.00151	0.08262	0.1837
930	7.742	0.22309	-0.55465	0.2644	0.14925	-0.48414	0.30702	0.12479	-0.52844	0.22202	0.01036	-0.29532	0.26655	0.00148	0.08264	0.1837
931	7.75	0.22341	-0.55429	0.26447	0.14945	-0.48389	0.30709	0.12503	-0.52825	0.22207	0.01033	-0.29526	0.2666	0.00146	0.08265	0.18371
932	7.758	0.22374	-0.55393	0.26454	0.14966	-0.48364	0.30716	0.12526	-0.52807	0.22212	0.0103	-0.29521	0.26664	0.00143	0.08267	0.18371
933	7.767	0.22409	-0.55355	0.26461	0.14986	-0.48339	0.30723	0.12551	-0.52788	0.22217	0.01027	-0.29516	0.26669	0.00141	0.08268	0.18371
934	7.775	0.22447	-0.55315	0.26468	0.15006	-0.48314	0.3073	0.12576	-0.5277	0.22221	0.01023	-0.29511	0.26674	0.00139	0.0827	0.18372
935	7.783	0.22486	-0.55275	0.26475	0.15027	-0.48289	0.30737	0.12602	-0.52752	0.22225	0.0102	-0.29506	0.26679	0.00137	0.08271	0.18372
936	7.792	0.22523	-0.55236	0.26483	0.15047	-0.48264	0.30744	0.12629	-0.52734	0.22228	0.01016	-0.29502	0.26684	0.00135	0.08272	0.18373
937	7.8	0.22556	-0.552	0.26491	0.15067	-0.48239	0.30751	0.12659	-0.52716	0.22231	0.01013	-0.29497	0.2669	0.00134	0.08272	0.18374
938	7.808	0.22588	-0.55166	0.265	0.15087	-0.48214	0.30758	0.1269	-0.52701	0.22233	0.01009	-0.29492	0.26695	0.00132	0.08273	0.18375
939	7.817	0.22618	-0.55132	0.26509	0.15108	-0.48189	0.30765	0.12724	-0.52688	0.22236	0.01006	-0.29487	0.267	0.0013	0.08274	0.18376
940	7.825	0.22648	-0.55099	0.26518	0.15128	-0.48163	0.30771	0.12762	-0.52678	0.22239	0.01002	-0.29483	0.26705	0.00129	0.08274	0.18377
941	7.833	0.22677	-0.55066	0.26526	0.15149	-0.48138	0.30776	0.12804	-0.52672	0.22241	0.00998	-0.29478	0.26709	0.00127	0.08275	0.18378
942	7.842	0.22707	-0.55033	0.26533	0.15171	-0.48113	0.30781	0.12847	-0.52666	0.22244	0.00995	-0.29474	0.26714	0.00125	0.08275	0.18379
943	7.85	0.22737	-0.55	0.26539	0.15192	-0.48088	0.30786	0.12888	-0.52655	0.22248	0.00992	-0.2947	0.26719	0.00122	0.08276	0.1838
944	7.858	0.22767	-0.54967	0.26545	0.15215	-0.48062	0.3079	0.12928	-0.52644	0.22251	0.00989	-0.29466	0.26723	0.0012	0.08276	0.18381
945	7.867	0.22797	-0.54934	0.26549	0.15237	-0.48037	0.30794	0.12968	-0.52632	0.22254	0.00986	-0.29462	0.26727	0.00118	0.08276	0.18382
946	7.875	0.22827	-0.54901	0.26553	0.1526	-0.48012	0.30798	0.13008	-0.52618	0.22256	0.00984	-0.29458	0.26732	0.00116	0.08277	0.18384
947	7.883	0.22858	-0.54867	0.26557	0.15284	-0.47986	0.30801	0.13049	-0.52603	0.22258	0.00982	-0.29454	0.26736	0.00114	0.08277	0.18385
948	7.892	0.22888	-0.54834	0.2656	0.15307	-0.47961	0.30804	0.131	-0.52596	0.22256	0.00981	-0.29451	0.2674	0.00112	0.08278	0.18387
949	7.9	0.22919	-0.54801	0.26563	0.15331	-0.47936	0.30807	0.13163	-0.52598	0.22252	0.0098	-0.29447	0.26743	0.0011	0.08279	0.18389
950	7.908	0.22951	-0.54767	0.26566	0.15355	-0.47911	0.30809	0.13229	-0.52596	0.22248	0.00979	-0.29444	0.26747	0.00108	0.08279	0.1839
951	7.917	0.22982	-0.54734	0.26568	0.15378	-0.47887	0.3081	0.13292	-0.52587	0.22246	0.00979	-0.29441	0.2675	0.00106	0.0828	0.18392
952	7.925	0.23014	-0.547	0.2657	0.15402	-0.47863	0.30812	0.13348	-0.52574	0.22245	0.00979	-0.29438	0.26752	0.00104	0.08281	0.18393
953	7.933	0.23047	-0.54666	0.26572	0.15425	-0.4784	0.30812	0.13393	-0.52559	0.22245	0.00979	-0.29435	0.26755	0.00102	0.08281	0.18395
954	7.942	0.2308	-0.54631	0.26574	0.15448	-0.47817	0.30813	0.13432	-0.52542	0.22245	0.00979	-0.29432	0.26757	0.001	0.08281	0.18396
955	7.95	0.23114	-0.54596	0.26575	0.15472	-0.47794	0.30813	0.13466	-0.52523	0.22246	0.00979	-0.29429	0.2676	0.00099	0.08281	0.18399
956	7.958	0.23148	-0.54561	0.26575	0.15495	-0.4777	0.30814	0.13496	-0.52504	0.22247	0.00979	-0.29426	0.26762	0.00098	0.08282	0.18402
957	7.967	0.23182	-0.54526	0.26575	0.1552	-0.47746	0.30814	0.13523	-0.52485	0.22247	0.00978	-0.29424	0.26763	0.00097	0.08282	0.18404
958	7.975	0.23215	-0.54491	0.26574	0.15545	-0.47723	0.30814	0.13549	-0.52465	0.22247	0.00978	-0.29422	0.26765	0.00096	0.08282	0.18407
959	7.983	0.23249	-0.54457	0.26572	0.1557	-0.47698	0.30813	0.13573	-0.52445	0.22246	0.00977	-0.2942	0.26767	0.00095	0.08282	0.18411
960	7.992	0.23282	-0.54422	0.2657	0.15595	-0.47674	0.30813	0.13596	-0.52424	0.22244	0.00977	-0.29417	0.26769	0.00094	0.08282	0.18414
961	8	0.23315	-0.54387	0.26567	0.15619	-0.4765	0.30812	0.1362	-0.52404	0.22243	0.00976	-0.29415	0.26771	0.00092	0.08282	0.18417
962	8.008	0.23348	-0.54353	0.26564	0.15644	-0.47627	0.30811	0.13643	-0.52383	0.22241	0.00975	-0.29413	0.26772	0.00091	0.08281	0.1842
963	8.017	0.23381	-0.54318	0.26561	0.15668	-0.47603	0.30809	0.13666	-0.52362	0.2224	0.00974	-0.29411	0.26774	0.00089	0.08281	0.18423
964	8.025	0.23414	-0.54284	0.26557	0.15692	-0.4758	0.30807	0.13689	-0.52341	0.22238	0.00974	-0.29409	0.26776	0.00087	0.0828	0.18427
